# xmcd
#
# Track frame offsets:
#	225
#	12230
#	31116
#	46014
#	56933
#	68381
#	83409
#	105874
#	116672
#	130436
#	136122
#	151129
#	175053
#
# Disc length: 2480 seconds
#
# Revision: 1
# Processed by: cddbd v1.4PL0 Copyright (c) Steve Scherf et al.
# Submitted via: audiograbber 1.81.03
#
DISCID=9209ad0d
DTITLE=Chicago Bound - Rockin' Feet
DYEAR=1997
DGENRE=Blues
TTITLE0=Riverside Blues
TTITLE1=Been Lookin' For You
TTITLE2=Got No Money
TTITLE3=Graveyard Blues
TTITLE4=Rockin' Feet
TTITLE5=E Swing (Trad)
TTITLE6=Tell The Truth
TTITLE7=Travelliln' Boogie
TTITLE8=Anna Belle
TTITLE9=The Crutch
TTITLE10=Sneakin' Around
TTITLE11=Blue Train Passin' Thru
TTITLE12=E Shuffle (Trad)
EXTD=
EXTT0=
EXTT1=
EXTT2=
EXTT3=
EXTT4=
EXTT5=
EXTT6=
EXTT7=
EXTT8=
EXTT9=
EXTT10=
EXTT11=
EXTT12=
PLAYORDER=
